<svg xmlns="http://www.w3.org/2000/svg" xmlns:xlink="http://www.w3.org/1999/xlink" style="position: absolute; width: 0; height: 0" id="__SVG_SPRITE_NODE__">
    <symbol viewBox="0 0 22 19" id="alert">
        <path d="M0 19h22L11 0 0 19zm12-3h-2v-2h2v2zm0-4h-2V8h2v4z"></path>
    </symbol>
    <symbol viewBox="0 0 16 16" id="arrow-forward-circled">
        <path d="M8 0C3.582 0 0 3.582 0 8s3.582 8 8 8 8-3.582 8-8-3.582-8-8-8zm0 12.844l-.856-.856 3.382-3.383h-7.37v-1.21h7.37L7.144 4.012 8 3.156 12.844 8 8 12.844z"></path>
    </symbol>
    <symbol viewBox="0 0 24 24" id="arrow-forward">
        <path d="M0 0h24v24H0z" fill="none"></path>
        <path d="M12 4l-1.41 1.41L16.17 11H4v2h12.17l-5.58 5.59L12 20l8-8z"></path>
    </symbol>
    <symbol viewBox="0 0 24 24" id="article-data">
        <path d="M13.2 13.8h3.4v6.8h-3.4v-6.8zM7.3 6.1h3.4v14.4H7.3V6.1zm-5.9 5.1h3.4v9.3H1.4v-9.3z"></path>
    </symbol>
    <symbol viewBox="0 0 24 24" id="btn-close-x">
        <path d="M19 6.41L17.59 5 12 10.59 6.41 5 5 6.41 10.59 12 5 17.59 6.41 19 12 13.41 17.59 19 19 17.59 13.41 12z"></path>
    </symbol>
    <symbol viewBox="0 0 84.2 59.2" id="btn-play">
        <path d="M33.3 41.4L56 29.6 33.3 17.8v23.6zm50.9-15v6.4c0 2.8-.2 6-.5 9.4-.1 1.7-.3 3.1-.4 4.2l-.1 1c-.2.8-.4 1.5-.6 2.2-.7 2.4-1.5 4.1-2.6 5.1-1.4 1.4-3 2.4-4.8 3-.6.2-1.3.3-2.1.4-.8.1-1.3.2-1.6.2-4.9.4-11.3.6-19.1.8-2.4 0-4.9.1-7.4.1h-3c-3.6 0-7.5-.1-11.7-.2-8.4-.2-14.1-.4-16.9-.6-.1 0-.7-.1-1.8-.2-.9-.1-1.7-.3-2.4-.5-2.1-.5-3.8-1.5-5.1-2.9-1-1.1-1.9-2.8-2.6-5.1-.2-.7-.4-1.5-.6-2.2l-.2-1C.6 45.4.4 44 .3 42.3c-.2-3.6-.3-6.7-.3-9.5v-6.4c0-2.8.1-6 .4-9.4l.4-4.2c.2-1 .4-2 .8-3.2.7-2.3 1.6-4 2.6-5.1 1.4-1.4 3-2.4 4.8-3 .6-.2 1.3-.3 2.1-.4.3-.1.9-.2 1.5-.2C17.5.6 23.9.3 31.7.2 35.7 0 39.1 0 42 0h3c2.5 0 4.9 0 7.4.1 7.8.1 14.2.4 19.1.7.3 0 .8.1 1.6.2.7.1 1.4.2 2.1.4C77 2 78.6 3 79.9 4.5c1.1 1.1 1.9 2.8 2.6 5.1.4 1.2.6 2.3.8 3.2l.4 4.2c.3 3.4.5 6.6.5 9.4z"></path>
        <path fill="#fff" d="M33.3 41.4V17.8L56 29.6z"></path>
    </symbol>
    <symbol viewBox="0 0 18 12" id="caret">
        <path d="M2.116.84l6.888 6.873L15.892.84l2.116 2.116-9.004 9.004L0 2.956z"></path>
    </symbol>
    <symbol viewBox="0 0 17 17" id="case-study">
        <path d="M14.5 4h-3V2.5c0-.83-.67-1.5-1.5-1.5H7c-.83 0-1.5.67-1.5 1.5V4h-3C1.67 4 1 4.67 1 5.5v8.25c0 .83.67 1.5 1.5 1.5h12c.83 0 1.5-.67 1.5-1.5V5.5c0-.83-.67-1.5-1.5-1.5zM10 4H7V2.5h3V4z"></path>
    </symbol>
    <symbol viewBox="0 0 22 22" id="check-circle">
        <path d="M11 1C5.48 1 1 5.48 1 11s4.48 10 10 10 10-4.48 10-10S16.52 1 11 1zM9 16l-5-5 1.41-1.41L9 13.17l7.59-7.59L18 7l-9 9z" fill="#FFF"></path>
    </symbol>
    <symbol viewBox="0 0 24 24" id="checkmark">
        <circle fill="#4CAF50" cx="12" cy="12" r="12"></circle>
        <path fill="#FFF" d="M17.702 6.462l-8.181 8.503-3.223-3.35-1.683 1.748 4.906 5.099 9.864-10.253z"></path>
    </symbol>
    <symbol viewBox="25 25 50 50" id="circle">
        <circle cx="50" cy="50" r="20"></circle>
    </symbol>
    <symbol viewBox="0 0 15 15" id="collection">
        <path d="M0 5h15v10H0zM1 3h13v1H1zM2 1h11v1H2z"></path>
    </symbol>
    <symbol viewBox="0 0 24 24" id="download">
        <path d="M19 9h-4V3H9v6H5l7 7 7-7zM5 18v2h14v-2H5z"></path>
        <path d="M0 0h24v24H0z" fill="none"></path>
    </symbol>
    <symbol viewBox="0 0 24 24" id="email-inverse">
        <path d="M20 4H4c-1.1 0-1.99.9-1.99 2L2 18c0 1.1.9 2 2 2h16c1.1 0 2-.9 2-2V6c0-1.1-.9-2-2-2zm0 4l-8 5-8-5V6l8 5 8-5v2z"></path>
        <path d="M0 0h24v24H0z" fill="none"></path>
    </symbol>
    <symbol viewBox="0 0 17 17" id="external-link">
        <path d="M2.657 2.657A8 8 0 1 0 13.97 13.97 8 8 0 0 0 2.657 2.657zm9.082 9.082h-1.211V6.956l-5.211 5.21-.856-.855 5.21-5.212H4.89V4.89h6.85v6.85z" fill-rule="evenodd"></path>
    </symbol>
    <symbol viewBox="0 0 17 17" id="infographic">
        <path d="M14.33 1H2.67C1.75 1 1 1.75 1 2.67v11.66c0 .92.75 1.67 1.67 1.67h11.66c.92 0 1.67-.75 1.67-1.67V2.67C16 1.75 15.25 1 14.33 1zM6 12.67H4.33V6.83H6v5.84zm3.33 0H7.67V4.33h1.66v8.34zm3.34 0H11V9.33h1.67v3.34z"></path>
    </symbol>
    <symbol viewBox="0 0 17 17" id="interview">
        <path d="M14.5 1h-12C1.68 1 1 1.68 1 2.5V16l3-3h10.5c.82 0 1.5-.68 1.5-1.5v-9c0-.82-.68-1.5-1.5-1.5zM4 6.25h9v1.5H4v-1.5zM10 10H4V8.5h6V10zm3-4.5H4V4h9v1.5z"></path>
    </symbol>
    <symbol viewBox="0 0 24 24" id="menu">
        <path d="M0 0h24v24H0z" fill="none"></path>
        <path d="M3 18h18v-2H3v2zm0-5h18v-2H3v2zm0-7v2h18V6H3z"></path>
    </symbol>
    <symbol viewBox="0 0 17 17" id="report">
        <path d="M10.5 1h-6C3.68 1 3 1.68 3 2.5v12c0 .82.67 1.5 1.5 1.5h9c.82 0 1.5-.68 1.5-1.5v-9L10.5 1zM12 13H6v-1.5h6V13zm0-3H6V8.5h6V10zM9.75 6.25V2.12l4.13 4.13H9.75z"></path>
    </symbol>
    <symbol viewBox="0 0 25 18" id="rss-feed">
        <ellipse transform="matrix(.00622 -1 1 .00622 -7.09 24.67)" cx="8.9" cy="15.9" rx="2.1" ry="2.1"></ellipse>
        <path d="M6.8 3v2.7C13.5 5.7 19 11.3 19 18h2.7c.1-8.2-6.6-15-14.9-15zm0 5.5v2.7c3.7 0 6.8 3.1 6.7 6.8h2.7c.1-5.3-4.1-9.5-9.4-9.5z"></path>
    </symbol>
    <symbol viewBox="0 0 24 24" id="search">
        <path d="M15.5 14h-.79l-.28-.27C15.41 12.59 16 11.11 16 9.5 16 5.91 13.09 3 9.5 3S3 5.91 3 9.5 5.91 16 9.5 16c1.61 0 3.09-.59 4.23-1.57l.27.28v.79l5 4.99L20.49 19l-4.99-5zm-6 0C7.01 14 5 11.99 5 9.5S7.01 5 9.5 5 14 7.01 14 9.5 11.99 14 9.5 14z"></path>
        <path d="M0 0h24v24H0z" fill="none"></path>
    </symbol>
    <symbol viewBox="0 -4.5 34 18" id="share-copy">
        <path d="M14.195 0v2.47h5.161c2.207 0 4 1.807 4 4.03 0 2.223-1.793 4.03-4 4.03h-5.161V13h5.161c3.562 0 6.452-2.912 6.452-6.5S22.918 0 19.356 0h-5.161zM7.742 7.8h10.324V5.2H7.742v2.6zm-1.29-5.33h5.162V0H6.452C2.891 0 0 2.912 0 6.5S2.89 13 6.452 13h5.162v-2.47H6.452c-2.207 0-4-1.807-4-4.03 0-2.223 1.793-4.03 4-4.03z"></path>
    </symbol>
    <symbol viewBox="0 0 25 18" id="share-download">
        <path class="st0" d="M13.3 8.9H10V4H5v4.9H1.7l5.8 5.8zM1.7 16.4h11.5V18H1.7z"></path>
    </symbol>
    <symbol viewBox="0 0 25 18" id="share-email">
        <path d="M8.1 10.7l-6.5-4h12.9l-6.4 4zm6.5 5.7h-13V8.3l6.5 4 6.5-4v8.1zm0-11.3h-13C.7 5.1 0 5.8 0 6.7v9.7c0 .9.7 1.6 1.6 1.6h12.9c.9 0 1.6-.7 1.6-1.6V6.7c.1-.9-.6-1.6-1.5-1.6z"></path>
    </symbol>
    <symbol viewBox="0 0 25 18" id="share-facebook">
        <path d="M14.2 18v-7h2.3l.4-2.7h-2.7V6.5c0-.8.2-1.3 1.4-1.3H17V2.8c-.2 0-1.1-.1-2.1-.1-2.1 0-3.5 1.3-3.5 3.6v2H9V11h2.4v7h2.8z"></path>
    </symbol>
    <symbol viewBox="0 0 25 18" id="share-linkedin">
        <path d="M11.2 8.7c.4-.7.9-1.1 1.6-1.4 1.2-.5 2.4-.4 3.6.1.9.4 1.4 1.2 1.6 2.2.1.6.2 1.3.2 1.9v6.2c0 .2-.1.2-.2.2h-2.9c-.2 0-.2-.1-.2-.2v-5.6c0-.4-.1-.8-.2-1.2-.2-.5-.6-.9-1.1-.9-.3 0-.6 0-.9.1-.7.2-1.1.7-1.2 1.4-.1.4-.1.8-.1 1.1v5.1c0 .2 0 .3-.3.3H8.2c-.2 0-.2-.1-.2-.2V7.6c0-.2.1-.2.2-.2H11c.2 0 .2.1.2.2v1.1M2.3 7.3h3.1c.2 0 .2 0 .2.2v10.3c0 .1 0 .2-.2.2h-3-.2l.1-10.7zM3.9 2c1.1 0 2 .9 2 1.9 0 1.1-.9 2-2 2-1 0-1.9-.9-1.9-2C2 2.9 2.9 2 3.9 2"></path>
    </symbol>
    <symbol viewBox="0 0 24 24" id="share-network">
        <path d="M0 0h24v24H0z" fill="none"></path>
        <path d="M18 16.08c-.76 0-1.44.3-1.96.77L8.91 12.7c.05-.23.09-.46.09-.7s-.04-.47-.09-.7l7.05-4.11c.54.5 1.25.81 2.04.81 1.66 0 3-1.34 3-3s-1.34-3-3-3-3 1.34-3 3c0 .24.04.47.09.7L8.04 9.81C7.5 9.31 6.79 9 6 9c-1.66 0-3 1.34-3 3s1.34 3 3 3c.79 0 1.5-.31 2.04-.81l7.12 4.16c-.05.21-.08.43-.08.65 0 1.61 1.31 2.92 2.92 2.92 1.61 0 2.92-1.31 2.92-2.92s-1.31-2.92-2.92-2.92z"></path>
    </symbol>
    <symbol viewBox="0 0 25 18" id="share-twitter">
        <path d="M21.2 6.1c-.6.3-1.3.4-2 .5.7-.4 1.3-1.1 1.6-1.9-.7.4-1.4.7-2.2.8-.7-.6-1.6-1.1-2.6-1.1-1.9 0-3.5 1.5-3.6 3.5 0 .3 0 .5.1.8C9.6 8.5 7 7 5.3 4.9c-.3.5-.5 1.1-.5 1.8 0 1.2.6 2.3 1.5 2.9-.6 0-1.1-.2-1.6-.5 0 1.7 1.2 3.1 2.8 3.5-.3.1-.6.1-.9.1-.2 0-.4 0-.7-.1.4 1.4 1.7 2.4 3.2 2.5-1.2.9-2.7 1.5-4.4 1.4-.3 0-.6 0-.8-.1 1.5 1 3.4 1.6 5.4 1.6 6.5.1 10-5.2 10.1-9.8v-.5c.7-.3 1.3-.9 1.8-1.6"></path>
    </symbol>
    <symbol viewBox="3 -7 48 49" id="share-vk">
        <path d="M14.4 6h9.2C32 6 34 8 34 16.4v9.2C34 34 32 36 23.6 36h-9.2C6 36 4 34 4 25.6v-9.2C4 8 6 6 14.4 6zm14.168 10.335c.139-.463 0-.804-.662-.804H25.72c-.556 0-.813.294-.952.619 0 0-1.112 2.711-2.688 4.473-.51.51-.742.672-1.02.672-.139 0-.34-.163-.34-.626v-4.334c0-.556-.162-.804-.625-.804h-3.438c-.347 0-.556.258-.556.503 0 .527.787.649.869 2.132v3.221c0 .707-.128.835-.406.835-.741 0-2.545-2.724-3.615-5.84-.21-.606-.42-.85-.98-.85H9.782c-.625 0-.75.293-.75.618 0 .58.742 3.453 3.453 7.254 1.808 2.595 4.355 4.002 6.672 4.002 1.39 0 1.563-.312 1.563-.85v-1.962c0-.625.131-.75.572-.75.324 0 .88.162 2.178 1.414 1.483 1.483 1.728 2.148 2.562 2.148h2.188c.625 0 .937-.312.757-.929-.197-.615-.905-1.506-1.845-2.563-.51-.603-1.275-1.252-1.506-1.576-.325-.418-.232-.603 0-.974 0 0 2.665-3.754 2.943-5.029z"></path>
    </symbol>
    <symbol viewBox="0 -17 60 60" id="share-xing">
        <path d="M30.89 0H3.121C1.418 0 0 1.42 0 3.122v27.765C0 32.582 1.418 34 3.122 34H30.89C32.582 34 34 32.582 34 30.887V3.122C34 1.421 32.582 0 30.89 0zM10.426 23.12H6.265c-.61-.021-.746-.53-.443-.968l4.31-7.855a.35.35 0 0 0 0-.503L7.291 8.89c-.152-.293 0-.731.297-.731h4.27c.152 0 .3.033.449.294l3.17 5.49c.142.143.142.284 0 .437l-4.608 8.362s-.176.362-.442.377zM28.22 5.038l-7.669 14.546c-.134.144-.134.225 0 .37l4.932 9.084c.274.536 0 .882-.404.882h-3.822c-.14 0-.223-.098-.415-.456l-5.19-9.51c-.094-.11-.092-.243 0-.376L23.58 4.47c.16-.316.404-.389.544-.389h3.75c.482-.014.563.508.348.958z"></path>
    </symbol>
    <symbol viewBox="0 0 30 13" id="share-youtube">
        <path d="M12.443 12.799V5.2L18.977 9l-6.534 3.798zM26.978 2.81C26.69 1.704 25.843.833 24.768.537 22.817 0 15 0 15 0S7.182 0 5.233.537C4.157.833 3.31 1.704 3.023 2.811 2.5 4.816 2.5 9 2.5 9s0 4.184.522 6.19c.288 1.106 1.135 1.977 2.21 2.273C7.183 18 15 18 15 18s7.818 0 9.767-.537c1.076-.296 1.923-1.167 2.21-2.274C27.5 13.184 27.5 9 27.5 9s0-4.184-.522-6.19z"></path>
    </symbol>
    <symbol viewBox="0 0 78 78" id="subscribe">
        <defs>
            <path id="subscribe_b" d="M70 35c0 19.33-15.67 35-35 35S0 54.33 0 35 15.67 0 35 0s35 15.67 35 35"></path>
            <filter id="subscribe_a" y="-7.1%" filterUnits="objectBoundingBox">
                <feOffset dy="2" in="SourceAlpha" result="shadowOffsetOuter1"></feOffset>
                <feGaussianBlur in="shadowOffsetOuter1" result="shadowBlurOuter1" stdDeviation="2"></feGaussianBlur>
                <feColorMatrix in="shadowBlurOuter1" values="0 0 0 0 0 0 0 0 0 0 0 0 0 0 0 0 0 0 0.0182574728 0"></feColorMatrix>
            </filter>
        </defs>
        <g fill="none" fill-rule="evenodd">
            <g transform="translate(4 2)">
                <use fill="#000" filter="url(#subscribe_a)" xlink:href="#subscribe_b"></use>
                <use fill="#CFD8DC" xlink:href="#subscribe_b"></use>
            </g>
            <path fill="#FFF" d="M23 35H4.034A18.82 18.82 0 0 0 4 36c0 .335.017.668.034 1H23v-2zm0-6H5.447A19.823 19.823 0 0 0 5 31h18v-2zm0 14H5c.116.675.263 1.343.447 2H23v-2z"></path>
            <path fill="#F7F5ED" d="M39.717 38.36l13.25 9.763h-26.63l13.25-9.763.065.047z"></path>
            <path fill="#F7F5ED" d="M26.337 48.304l13.33-9.55-.073-.05-.008.005-.025-.02a289.018 289.018 0 0 1-3.683-2.605c-3.186-2.288-6.35-4.64-9.54-6.984v19.204z"></path>
            <path fill="#E75A4D" d="M52.967 48.123h.936c1.19 0 2.163-.96 2.163-2.134V26.544c0-1.174-.974-2.135-2.163-2.135h-.936v23.713zm-26.63.18h-.935c-1.19 0-2.163-.96-2.163-2.133V26.545c0-1.174.972-2.134 2.162-2.134h.935v23.894z"></path>
            <path fill="#F7F5ED" d="M39.717 34.174l13.25-9.764h-26.63l13.25 9.764.065-.047z"></path>
            <path fill="#B7B6AD" d="M39.666 38.754l13.3 9.37V29.1c-2.2 1.617-4.39 3.238-6.58 4.84a356.83 356.83 0 0 1-6.245 4.474l-.473.34z"></path>
            <path fill="#B7B6AD" fill-rule="nonzero" d="M39.783 38.767l-13.396 9.605-.1-.136 13.396-9.606z"></path>
            <path fill="#E75A4D" d="M39.666 38.754c-5.05-2.968-11.492-8.333-16.427-11.918l1.46-2.26 1.594-.127.043-.04 13.25 9.764.065-.047.065.047 13.25-9.763.043.04 1.595.127 1.46 2.26c-5.337 3.876-10.91 8.363-16.4 11.917z"></path>
            <path d="M12 9h54v54H12z"></path>
        </g>
    </symbol>
    <symbol viewBox="0 0 17 17" id="tool">
        <path d="M2.83 4.42h12.75V3H2.83c-.78 0-1.4.64-1.4 1.42v7.8H0v2.1h9.92v-2.1h-7.1V4.4zm13.46 1.4h-4.27c-.4 0-.7.33-.7.72v7.1c0 .37.3.7.7.7h4.25c.38 0 .7-.33.7-.7v-7.1c0-.4-.32-.7-.7-.7zm-.73 6.4h-2.83V7.24h2.83v4.96z"></path>
    </symbol>
    <symbol viewBox="0 0 71 23" id="google-logo">
        <path d="M0 8.773C0 3.937 4.083 0 8.938 0c2.684 0 4.595 1.047 6.034 2.415l-1.695 1.693c-1.032-.962-2.43-1.712-4.34-1.712-3.544 0-6.316 2.847-6.316 6.377s2.773 6.38 6.318 6.38c2.297 0 3.607-.92 4.446-1.755.687-.686 1.137-1.67 1.307-3.02H8.94V7.982h8.097c.085.432.13.947.13 1.502 0 1.796-.495 4.024-2.085 5.607-1.547 1.602-3.524 2.46-6.142 2.46C4.083 17.55 0 13.61 0 8.774zM23.693 15.076c-1.72 0-3.198-1.413-3.198-3.425 0-2.03 1.48-3.422 3.198-3.422s3.2 1.39 3.2 3.423c0 2.013-1.482 3.426-3.2 3.426m0-9.076C20.557 6 18 8.375 18 11.65c0 3.257 2.557 5.652 5.693 5.652 3.137 0 5.692-2.395 5.692-5.65C29.385 8.374 26.83 6 23.693 6M36.696 15.076c-1.72 0-3.2-1.413-3.2-3.425 0-2.03 1.48-3.422 3.2-3.422 1.718 0 3.2 1.39 3.2 3.423 0 2.013-1.482 3.426-3.2 3.426m0-9.076C33.56 6 31 8.375 31 11.65c0 3.257 2.56 5.652 5.696 5.652 3.135 0 5.692-2.395 5.692-5.65C42.388 8.374 39.83 6 36.696 6M48.648 15.076c-1.716 0-3.156-1.43-3.156-3.403 0-1.99 1.44-3.445 3.156-3.445 1.697 0 3.03 1.454 3.03 3.445 0 1.972-1.333 3.403-3.03 3.403zm2.858-8.732v.918h-.085C50.86 6.602 49.79 6 48.435 6 45.6 6 43 8.485 43 11.673c0 3.168 2.6 5.63 5.434 5.63 1.355 0 2.427-.6 2.987-1.287h.086v.816c0 2.162-1.16 3.316-3.028 3.316-1.526 0-2.47-1.092-2.857-2.01l-2.17.9c.624 1.498 2.278 3.336 5.028 3.336 2.922 0 5.39-1.713 5.39-5.885V6.343h-2.362zM56 16.608h2.49V0H56M65.434 8.183c.987 0 1.825.494 2.104 1.2l-5.07 2.095c-.064-2.182 1.698-3.295 2.966-3.295m.192 6.89c-1.267 0-2.17-.577-2.748-1.71l7.582-3.124-.26-.644C69.73 8.333 68.29 6 65.348 6 62.427 6 60 8.292 60 11.65c0 3.167 2.404 5.65 5.626 5.65 2.6 0 4.103-1.583 4.727-2.504l-1.934-1.284c-.644.942-1.526 1.562-2.794 1.562"></path>
    </symbol>
    <symbol viewBox="0 0 477.4 64.1" id="twg-logo-color">
        <path fill="#5f6368" d="M199.6 17.7l-9.7 30.1h-5.8l-7.5-23.1-7.4 23.1h-5.7l-9.7-30.1h5.9l6.7 22.7h.1l7.4-22.7h5.8l7.4 22.7h.1l6.6-22.7h5.8zm9.6-10.3c0 1.1-.4 2-1.2 2.8-.8.8-1.7 1.2-2.8 1.2-1.1 0-2-.4-2.8-1.2-.8-.8-1.2-1.7-1.2-2.8 0-1.1.4-2 1.2-2.8.8-.8 1.7-1.2 2.8-1.2 1.1 0 2 .4 2.8 1.2.8.7 1.2 1.7 1.2 2.8zm-1.1 10.3v30.1h-5.7V17.7h5.7zm17.2 30.6c-2.5 0-4.5-.8-6.1-2.3-1.6-1.5-2.4-3.6-2.5-6.3V22.9h-5.3v-5.2h5.3V8.5h5.7v9.2h7.4v5.2h-7.4v15c0 2 .4 3.4 1.2 4.1.8.7 1.7 1.1 2.6 1.1.4 0 .9-.1 1.3-.2s.8-.2 1.2-.4l1.8 5c-1.5.6-3.2.8-5.2.8zm8.2-44.4h5.7v13.9L239 22h.2c.9-1.5 2.2-2.7 4-3.7 1.8-1 3.6-1.5 5.6-1.5 3.7 0 6.5 1.1 8.5 3.2s3 5.1 3 9v18.9h-5.7V30c0-5.4-2.4-8.1-7.2-8.1-2.3 0-4.2 1-5.8 2.9-1.6 1.9-2.4 4.1-2.4 6.7v16.4h-5.7v-44zM17.9 10.3v38.6h-5.7V10.3H0V4.8h30.2v5.4H17.9zm15.7-5.5h5.7v13.9l-.3 4.2h.2c.9-1.5 2.2-2.7 4-3.7 1.8-1 3.6-1.5 5.6-1.5 3.7 0 6.5 1.1 8.5 3.2s3 5.1 3 9v18.9h-5.7V31c0-5.4-2.4-8.1-7.2-8.1-2.3 0-4.2 1-5.8 2.9-1.6 1.9-2.4 4.1-2.4 6.7v16.4h-5.7V4.8zm39.1 3.5c0 1.1-.4 2-1.2 2.8-.8.8-1.7 1.2-2.8 1.2-1.1 0-2-.4-2.8-1.2-.8-.8-1.2-1.7-1.2-2.8 0-1.1.4-2 1.2-2.8.8-.8 1.7-1.2 2.8-1.2 1.1 0 2 .4 2.8 1.2.8.8 1.2 1.7 1.2 2.8zm-1.1 10.4v30.1h-5.7V18.7h5.7zm5.8 0h5.4v4.2h.2c.9-1.5 2.2-2.7 4-3.7 1.8-1 3.6-1.5 5.6-1.5 3.7 0 6.5 1.1 8.5 3.2s3 5.1 3 9v18.9h-5.7V30.3c-.1-4.9-2.6-7.4-7.4-7.4-2.3 0-4.1.9-5.7 2.7-1.5 1.8-2.3 4-2.3 6.5v16.6h-5.7v-30zm58.7 30.1h-6.8l-9.4-14.2-4.6 4.5v9.6h-5.7v-44h5.7v27.1l13-13.2h7.2v.4l-11.7 11.7 12.3 17.9v.2z"></path>
        <path fill="#4285f4" d="M303.1 49.8c-13.7 0-25.2-11.2-25.2-24.9S289.4 0 303.1 0c7.6 0 13 3 17.1 6.9l-4.8 4.8c-2.9-2.7-6.9-4.9-12.3-4.9-10 0-17.8 8.1-17.8 18.1 0 10 7.8 18.1 17.8 18.1 6.5 0 10.2-2.6 12.6-5 1.9-1.9 3.2-4.7 3.7-8.6h-16.3v-6.8H326c.2 1.2.4 2.7.4 4.2 0 5.1-1.4 11.4-5.9 15.9-4.4 4.6-10 7.1-17.4 7.1z"></path>
        <path fill="#ea4335" d="M361.7 33.7c0 9.2-7.1 16-15.8 16-8.7 0-15.8-6.8-15.8-16 0-9.3 7.1-16 15.8-16 8.7 0 15.8 6.8 15.8 16zm-6.9 0c0-5.8-4.1-9.7-8.9-9.7s-8.9 4-8.9 9.7c0 5.7 4.1 9.7 8.9 9.7s8.9-4 8.9-9.7z"></path>
        <path d="M397.1 33.7c0 9.2-7.1 16-15.8 16-8.7 0-15.8-6.8-15.8-16 0-9.3 7.1-16 15.8-16 8.7 0 15.8 6.8 15.8 16zm-6.9 0c0-5.8-4.1-9.7-8.9-9.7-4.8 0-8.9 3.9-8.9 9.7 0 5.7 4.1 9.7 8.9 9.7 4.8.1 8.9-4 8.9-9.7z" fill="#fbbc04"></path>
        <path fill="#4285f4" d="M431.6 18.7v28.8c0 11.8-7 16.7-15.2 16.7-7.8 0-12.4-5.2-14.2-9.5l6.1-2.5c1.1 2.6 3.8 5.7 8.1 5.7 5.3 0 8.6-3.3 8.6-9.4v-2.3h-.2c-1.6 1.9-4.6 3.6-8.4 3.6-8 0-15.4-7-15.4-16s7.3-16.1 15.4-16.1c3.8 0 6.9 1.7 8.4 3.6h.2v-2.6h6.6zm-6.2 15.1c0-5.6-3.8-9.8-8.6-9.8-4.9 0-8.9 4.1-8.9 9.8 0 5.6 4.1 9.6 8.9 9.6 4.9.1 8.6-4 8.6-9.6z"></path>
        <path d="M443.9 1.7v47.1h-7V1.7h7z" fill="#34a853"></path>
        <path fill="#ea4335" d="M471.6 39l5.5 3.6c-1.8 2.6-6 7.1-13.4 7.1-9.1 0-15.7-7-15.7-16 0-9.5 6.6-16 14.9-16s12.4 6.6 13.7 10.2l.7 1.8-21.3 8.9c1.6 3.2 4.2 4.9 7.8 4.9 3.5 0 6-1.8 7.8-4.5zm-16.8-5.7l14.3-5.9c-.8-2-3.2-3.4-5.9-3.4-3.6-.1-8.6 3.1-8.4 9.3z"></path>
    </symbol>
    <symbol viewBox="0 0 477.4 64.1" id="twg-logo">
        <path d="M199.6 17.7l-9.7 30.1h-5.8l-7.5-23.1-7.4 23.1h-5.7l-9.7-30.1h5.9l6.7 22.7h.1l7.4-22.7h5.8l7.4 22.7h.1l6.6-22.7h5.8zm9.6-10.3c0 1.1-.4 2-1.2 2.8-.8.8-1.7 1.2-2.8 1.2-1.1 0-2-.4-2.8-1.2-.8-.8-1.2-1.7-1.2-2.8 0-1.1.4-2 1.2-2.8.8-.8 1.7-1.2 2.8-1.2 1.1 0 2 .4 2.8 1.2.8.7 1.2 1.7 1.2 2.8zm-1.1 10.3v30.1h-5.7V17.7h5.7zm17.2 30.6c-2.5 0-4.5-.8-6.1-2.3-1.6-1.5-2.4-3.6-2.5-6.3V22.9h-5.3v-5.2h5.3V8.5h5.7v9.2h7.4v5.2h-7.4v15c0 2 .4 3.4 1.2 4.1.8.7 1.7 1.1 2.6 1.1.4 0 .9-.1 1.3-.2s.8-.2 1.2-.4l1.8 5c-1.5.6-3.2.8-5.2.8zm8.2-44.4h5.7v13.9L239 22h.2c.9-1.5 2.2-2.7 4-3.7 1.8-1 3.6-1.5 5.6-1.5 3.7 0 6.5 1.1 8.5 3.2s3 5.1 3 9v18.9h-5.7V30c0-5.4-2.4-8.1-7.2-8.1-2.3 0-4.2 1-5.8 2.9-1.6 1.9-2.4 4.1-2.4 6.7v16.4h-5.7v-44zM17.9 10.3v38.6h-5.7V10.3H0V4.8h30.2v5.4H17.9zm15.7-5.5h5.7v13.9l-.3 4.2h.2c.9-1.5 2.2-2.7 4-3.7 1.8-1 3.6-1.5 5.6-1.5 3.7 0 6.5 1.1 8.5 3.2s3 5.1 3 9v18.9h-5.7V31c0-5.4-2.4-8.1-7.2-8.1-2.3 0-4.2 1-5.8 2.9-1.6 1.9-2.4 4.1-2.4 6.7v16.4h-5.7V4.8zm39.1 3.5c0 1.1-.4 2-1.2 2.8-.8.8-1.7 1.2-2.8 1.2-1.1 0-2-.4-2.8-1.2-.8-.8-1.2-1.7-1.2-2.8 0-1.1.4-2 1.2-2.8.8-.8 1.7-1.2 2.8-1.2 1.1 0 2 .4 2.8 1.2.8.8 1.2 1.7 1.2 2.8zm-1.1 10.4v30.1h-5.7V18.7h5.7zm5.8 0h5.4v4.2h.2c.9-1.5 2.2-2.7 4-3.7 1.8-1 3.6-1.5 5.6-1.5 3.7 0 6.5 1.1 8.5 3.2s3 5.1 3 9v18.9h-5.7V30.3c-.1-4.9-2.6-7.4-7.4-7.4-2.3 0-4.1.9-5.7 2.7-1.5 1.8-2.3 4-2.3 6.5v16.6h-5.7v-30zm58.7 30.1h-6.8l-9.4-14.2-4.6 4.5v9.6h-5.7v-44h5.7v27.1l13-13.2h7.2v.4l-11.7 11.7 12.3 17.9v.2zm167 1c-13.7 0-25.2-11.2-25.2-24.9S289.4 0 303.1 0c7.6 0 13 3 17.1 6.9l-4.8 4.8c-2.9-2.7-6.9-4.9-12.3-4.9-10 0-17.8 8.1-17.8 18.1 0 10 7.8 18.1 17.8 18.1 6.5 0 10.2-2.6 12.6-5 1.9-1.9 3.2-4.7 3.7-8.6h-16.3v-6.8H326c.2 1.2.4 2.7.4 4.2 0 5.1-1.4 11.4-5.9 15.9-4.4 4.6-10 7.1-17.4 7.1zm58.6-16.1c0 9.2-7.1 16-15.8 16-8.7 0-15.8-6.8-15.8-16 0-9.3 7.1-16 15.8-16 8.7 0 15.8 6.8 15.8 16zm-6.9 0c0-5.8-4.1-9.7-8.9-9.7s-8.9 4-8.9 9.7c0 5.7 4.1 9.7 8.9 9.7s8.9-4 8.9-9.7zm42.3 0c0 9.2-7.1 16-15.8 16-8.7 0-15.8-6.8-15.8-16 0-9.3 7.1-16 15.8-16 8.7 0 15.8 6.8 15.8 16zm-6.9 0c0-5.8-4.1-9.7-8.9-9.7-4.8 0-8.9 3.9-8.9 9.7 0 5.7 4.1 9.7 8.9 9.7 4.8.1 8.9-4 8.9-9.7zm41.4-15v28.8c0 11.8-7 16.7-15.2 16.7-7.8 0-12.4-5.2-14.2-9.5l6.1-2.5c1.1 2.6 3.8 5.7 8.1 5.7 5.3 0 8.6-3.3 8.6-9.4v-2.3h-.2c-1.6 1.9-4.6 3.6-8.4 3.6-8 0-15.4-7-15.4-16s7.3-16.1 15.4-16.1c3.8 0 6.9 1.7 8.4 3.6h.2v-2.6h6.6zm-6.2 15.1c0-5.6-3.8-9.8-8.6-9.8-4.9 0-8.9 4.1-8.9 9.8 0 5.6 4.1 9.6 8.9 9.6 4.9.1 8.6-4 8.6-9.6zm18.5-32.1v47.1h-7V1.7h7zM471.6 39l5.5 3.6c-1.8 2.6-6 7.1-13.4 7.1-9.1 0-15.7-7-15.7-16 0-9.5 6.6-16 14.9-16s12.4 6.6 13.7 10.2l.7 1.8-21.3 8.9c1.6 3.2 4.2 4.9 7.8 4.9 3.5 0 6-1.8 7.8-4.5zm-16.8-5.7l14.3-5.9c-.8-2-3.2-3.4-5.9-3.4-3.6-.1-8.6 3.1-8.4 9.3z"></path>
    </symbol>
    <symbol viewBox="0 0 385.1 89.9" id="youtube">
        <path d="M121 15.7c-1.4-5.2-5.5-9.3-10.7-10.7-9.5-2.5-47.5-2.5-47.5-2.5s-38 0-47.5 2.5C10.1 6.4 6 10.5 4.6 15.7 2.1 25.2 2.1 45 2.1 45s0 19.8 2.5 29.2c1.4 5.2 5.5 9.3 10.7 10.7 9.5 2.5 47.5 2.5 47.5 2.5s38 0 47.5-2.5c5.2-1.4 9.3-5.5 10.7-10.7 2.5-9.5 2.5-29.2 2.5-29.2s.1-19.8-2.5-29.3z" fill="red"></path>
        <path fill="#fff" d="M50.7 63.2L82.2 45 50.7 26.7z"></path>
        <path d="M178.4 79.8c-2.4-1.6-4.1-4.1-5.1-7.6-1-3.4-1.5-8-1.5-13.6v-7.7c0-5.7.6-10.3 1.7-13.8 1.2-3.5 3-6 5.4-7.6 2.5-1.6 5.7-2.4 9.7-2.4 3.9 0 7.1.8 9.5 2.4 2.4 1.6 4.1 4.2 5.2 7.6 1.1 3.4 1.7 8 1.7 13.8v7.7c0 5.7-.5 10.2-1.6 13.7-1.1 3.4-2.8 6-5.2 7.6-2.4 1.6-5.7 2.4-9.8 2.4-4.3-.1-7.6-.9-10-2.5zm13.5-8.3c.7-1.7 1-4.6 1-8.5V46.4c0-3.8-.3-6.6-1-8.4-.7-1.8-1.8-2.6-3.5-2.6-1.6 0-2.8.9-3.4 2.6-.7 1.8-1 4.6-1 8.4V63c0 3.9.3 6.8 1 8.5.6 1.7 1.8 2.6 3.5 2.6 1.5 0 2.7-.9 3.4-2.6zm171-12.8v2.7c0 3.4.1 6 .3 7.7.2 1.7.6 3 1.3 3.7.6.8 1.6 1.2 3 1.2 1.8 0 3-.7 3.7-2.1.7-1.4 1-3.7 1.1-7l10.3.6c.1.5.1 1.1.1 1.9 0 4.9-1.3 8.6-4 11-2.7 2.4-6.5 3.6-11.4 3.6-5.9 0-10-1.9-12.4-5.6-2.4-3.7-3.6-9.4-3.6-17.2v-9.3c0-8 1.2-13.8 3.7-17.5 2.5-3.7 6.7-5.5 12.6-5.5 4.1 0 7.3.8 9.5 2.3 2.2 1.5 3.7 3.9 4.6 7 .9 3.2 1.3 7.6 1.3 13.2v9.1h-20.1zm1.6-22.4c-.6.8-1 2-1.2 3.7-.2 1.7-.3 4.3-.3 7.8v3.8h8.8v-3.8c0-3.4-.1-6-.3-7.8-.2-1.8-.7-3-1.3-3.7-.6-.7-1.6-1.1-2.8-1.1-1.4 0-2.3.4-2.9 1.1zM149.2 57.7L135.6 8.5h11.9l4.8 22.3c1.2 5.5 2.1 10.2 2.7 14.1h.3c.4-2.8 1.3-7.4 2.7-14l5-22.4h11.9L161 57.7v23.6h-11.8V57.7zm94.5-29.6v53.3h-9.4l-1-6.5h-.3c-2.5 4.9-6.4 7.4-11.5 7.4-3.5 0-6.1-1.2-7.8-3.5-1.7-2.3-2.5-5.9-2.5-10.9V28.1h12v39.1c0 2.4.3 4.1.8 5.1s1.4 1.5 2.6 1.5c1 0 2-.3 3-1 1-.6 1.7-1.4 2.1-2.4V28.1h12zm61.5 0v53.3h-9.4l-1-6.5h-.3c-2.5 4.9-6.4 7.4-11.5 7.4-3.5 0-6.1-1.2-7.8-3.5-1.7-2.3-2.5-5.9-2.5-10.9V28.1h12v39.1c0 2.4.3 4.1.8 5.1s1.4 1.5 2.6 1.5c1 0 2-.3 3-1 1-.6 1.7-1.4 2.1-2.4V28.1h12z"></path>
        <path d="M276.2 18.1h-11.9v63.2h-11.7V18.1h-11.9V8.5h35.5v9.6zm68.6 18.5c-.7-3.4-1.9-5.8-3.5-7.3s-3.9-2.3-6.7-2.3c-2.2 0-4.3.6-6.2 1.9-1.9 1.2-3.4 2.9-4.4 4.9h-.1V5.7h-11.6v75.6h9.9l1.2-5h.3c.9 1.8 2.3 3.2 4.2 4.3 1.9 1 3.9 1.6 6.2 1.6 4.1 0 7-1.9 8.9-5.6 1.9-3.7 2.9-9.6 2.9-17.5v-8.4c0-6.1-.3-10.7-1.1-14.1zm-11 21.7c0 3.9-.2 6.9-.5 9.1-.3 2.2-.9 3.8-1.6 4.7-.8.9-1.8 1.4-3 1.4-1 0-1.9-.2-2.7-.7-.8-.5-1.5-1.2-2-2.1V40.5c.4-1.4 1.1-2.6 2.1-3.6 1-.9 2.1-1.4 3.2-1.4 1.2 0 2.2.5 2.8 1.4.7 1 1.1 2.6 1.4 4.8.3 2.3.4 5.5.4 9.6v7z"></path>
    </symbol>
</svg>